<svg viewBox="0 0 147 40" height="40" width="147" xmlns="http://www.w3.org/2000/svg"><path d="M72.2 18.42c0-.33.13-.65.36-.89.24-.23.56-.37.9-.38h7.21c5.11 0 8.48 2.68 8.48 7.06v.06c0 4.8-4.08 7.29-8.9 7.29h-5.5v6.73a1.24 1.24 0 01-.33.97 1.29 1.29 0 01-1.46.3 1.29 1.29 0 01-.7-.75 1.24 1.24 0 01-.07-.52zm8.15 10.87c3.75 0 6.2-1.98 6.2-4.94v-.06c0-3.18-2.41-4.83-6.02-4.83H74.8v9.79zm13.67-11.02a1.24 1.24 0 01.33-.97 1.29 1.29 0 011.47-.3 1.28 1.28 0 01.7.75c.05.17.08.34.06.52v20.02a1.25 1.25 0 01-.33.97 1.28 1.28 0 01-.95.4 1.3 1.3 0 01-.95-.4 1.26 1.26 0 01-.33-.97zm9.18.03c0-.33.14-.64.38-.87s.55-.36.88-.37h.36a1.58 1.58 0 011.3.73l13.74 17.23V18.24c0-.33.13-.64.37-.87a1.26 1.26 0 011.76 0c.23.23.36.54.36.87v20.1a1.09 1.09 0 01-.32.82 1.15 1.15 0 01-.84.34h-.13a1.74 1.74 0 01-1.33-.77l-14.06-17.64v17.24c0 .32-.13.62-.35.85-.23.23-.53.37-.86.39a1.3 1.3 0 01-.87-.37 1.21 1.21 0 01-.35-.87V18.3zm25.54-.03a1.24 1.24 0 01.33-.97 1.29 1.29 0 01.95-.4 1.3 1.3 0 01.95.4 1.26 1.26 0 01.33.97v12.17l12.9-13a1.5 1.5 0 011-.45 1.28 1.28 0 011.24 1.25 1.26 1.26 0 01-.42.89l-8.04 7.82 8.67 10.42c.23.26.35.59.35.93a1.27 1.27 0 01-.41.91 1.32 1.32 0 01-.95.36 1.26 1.26 0 01-1-.58l-8.46-10.36-4.88 4.8v4.84a1.24 1.24 0 01-.79 1.16 1.3 1.3 0 01-1.66-.68c-.07-.15-.1-.31-.1-.48v-20z" fill="currentColor"/><path d="M98.94 9.75c-.97 0-1.9-.38-2.57-1.05a3.55 3.55 0 01-1.08-2.53c0 .95-.38 1.86-1.06 2.53a3.67 3.67 0 01-2.57 1.05c.96 0 1.89.38 2.57 1.05s1.06 1.58 1.06 2.53a3.66 3.66 0 013.65-3.58z"/><path d="M43.29 19.07h.73a2.47 2.47 0 00-2.14-1.22 2.03 2.03 0 01-1.9-1.33c-.72.2-1.42.48-2.1.8h.2a2 2 0 011.41.59c.38.37.6.87.6 1.4v.28a8.98 8.98 0 013.2-.52z" fill="currentColor"/><path d="M60.73 27.65L55.54 6.57C55.18 4.25 52.93 0 46.9 0c-.4 0-.78.16-1.06.43a1.47 1.47 0 000 2.1c.28.28.66.43 1.06.43 4.87 0 5.6 3.69 5.67 4.09l4.78 19.45h-2.1a11.72 11.72 0 00-5.32-8.41 2.5 2.5 0 00-1.54 2.27 2 2 0 010 .26 9.15 9.15 0 014.02 7.37c0 .5-.06 1-.14 1.48a8.85 8.85 0 01-3.05 5.4 9.13 9.13 0 01-11.77 0 8.85 8.85 0 01-3.05-5.4 9.03 9.03 0 01-.14-1.48 9.1 9.1 0 01.95-3.95c-.5-.03-.98-.26-1.33-.62s-.54-.85-.54-1.35a.7.7 0 00-.19-.49 11.57 11.57 0 00-1.8 4.94H29.5a11.78 11.78 0 00-3.94-7.54 12.17 12.17 0 00-16.1 0 11.78 11.78 0 00-3.93 7.54H3.44l4.8-19.47c.05-.4.8-4.09 5.66-4.09a1.48 1.48 0 001.5-1.48c0-.4-.15-.77-.44-1.05S14.3 0 13.9 0C7.87 0 5.62 4.25 5.26 6.57L.06 27.65A1.38 1.38 0 00.3 28.9a1.42 1.42 0 001.2.53h4c.08.61.21 1.22.38 1.81.07-.1.1-.23.1-.35A2.03 2.03 0 018.5 29a8.84 8.84 0 01.06-2.53 8.85 8.85 0 013.04-5.41 9.13 9.13 0 0111.8 0 8.85 8.85 0 013.03 5.41 8.87 8.87 0 01-2.53 7.75 9.18 9.18 0 01-6.38 2.62 9.15 9.15 0 01-5.45-1.7c-.36.3-.82.47-1.3.48-.2 0-.4.08-.53.22s-.22.32-.22.52c0 .27-.06.54-.18.8a12.09 12.09 0 007.64 2.7c2.95.01 5.8-1.04 8.02-2.95a11.79 11.79 0 004-7.44h1.82c.34 2.9 1.74 5.57 3.95 7.51a12.17 12.17 0 0016.06 0 11.78 11.78 0 003.95-7.5h4.02a1.44 1.44 0 001.22-.54 1.38 1.38 0 00.22-1.3z" fill="currentColor"/><path d="M50.92 15.92a4.58 4.58 0 01-4.18-2.74 4.37 4.37 0 01-.34-1.7 4.4 4.4 0 01-1.33 3.14c-.84.83-2 1.3-3.19 1.3 1.2 0 2.35.47 3.2 1.3a4.42 4.42 0 011.32 3.14 4.44 4.44 0 014.52-4.44zm-12.85 3.46c-.73 0-1.43-.28-1.95-.8a2.7 2.7 0 01-.8-1.91c0 .72-.3 1.4-.81 1.91-.52.51-1.22.8-1.95.8.73 0 1.43.29 1.95.8.51.5.8 1.2.8 1.9 0-.71.3-1.4.81-1.9s1.22-.8 1.95-.8zM10.79 33.64c-.73 0-1.43-.3-1.94-.8a2.7 2.7 0 01-.8-1.91 2.77 2.77 0 01-2.76 2.71c.73 0 1.43.3 1.95.8.51.5.8 1.2.8 1.92 0-.72.3-1.4.8-1.92.52-.5 1.22-.8 1.95-.8z"/></svg>