<svg viewBox="0 0 74 23" height="23" width="74" xmlns="http://www.w3.org/2000/svg"><path d="M0 1.55A1.29 1.29 0 011.26.26h7.13c5.06 0 8.39 2.7 8.39 7.13v.06c0 4.85-4.04 7.36-8.8 7.36H2.53v6.8A1.28 1.28 0 011.27 23 1.27 1.27 0 010 21.61zm8.07 10.97c3.7 0 6.14-2 6.14-4.99v-.06c0-3.2-2.4-4.87-5.96-4.87H2.6v9.88zM21.6 1.39A1.28 1.28 0 0122.85 0a1.27 1.27 0 011.27 1.39V21.6a1.28 1.28 0 01-1.26 1.4 1.27 1.27 0 01-1.27-1.39zm9.07.03A1.28 1.28 0 0131.93.17h.34a1.54 1.54 0 011.29.74l13.6 17.4V1.36A1.24 1.24 0 0148.39.12a1.23 1.23 0 011.23 1.24v20.3a1.14 1.14 0 01-1.15 1.17h-.13a1.7 1.7 0 01-1.31-.78L33.12 4.25v17.4a1.26 1.26 0 01-1.2 1.25 1.23 1.23 0 01-1.2-1.25V1.42zm25.27-.03A1.28 1.28 0 0157.2 0a1.27 1.27 0 011.26 1.39v12.3L71.23.54a1.5 1.5 0 011-.45 1.28 1.28 0 011.22 1.26 1.29 1.29 0 01-.42.9l-7.95 7.9 8.57 10.52c.23.26.35.6.35.94a1.31 1.31 0 01-1.34 1.28 1.23 1.23 0 01-1-.58L63.3 11.86l-4.83 4.85v4.88a1.27 1.27 0 01-1.26 1.27 1.26 1.26 0 01-1.26-1.27V1.4z" fill="currentColor"/></svg>