<svg fill="none" height="41" viewBox="0 0 22 41" width="22" xmlns="http://www.w3.org/2000/svg"><path d="m2.0413 20.5035 19.707-19.0891c.0798-.0765.1431-.16757.1863-.26794.0432-.10038.0654-.208062.0654-.316825 0-.108764-.0222-.216448-.0654-.316821-.0432-.100374-.1065-.191445-.1863-.267944-.0797-.077615-.1745-.139199-.2789-.1812193s-.2162-.0636507-.3293-.0636507c-.113 0-.2248.0216304-.3292.0636507s-.1992.1036043-.2789.1812193l-20.279465 19.66393c-.080045.0774-.143557.1693-.1868921.2705-.0433355.1012-.0656429.2097-.0656429.3192 0 .1096.0223074.2181.0656429.3193.0433351.1012.1068471.1931.1868921.2705l20.279465 19.6738c.1647.1536.3847.2389.6133.2379.1686-.0015.333-.0512.4728-.1428.1397-.0916.2485-.221.3128-.3722.0643-.1511.0813-.3173.0488-.4778-.0324-.1605-.1129-.3081-.2314-.4245z" fill="#283645" opacity=".3"/></svg>