<svg fill="none" height="32" viewBox="0 0 32 32" width="32" xmlns="http://www.w3.org/2000/svg"><g fill="#283645" opacity=".3"><path d="m16 4c2.3734 0 4.6935.70379 6.6669 2.02236 1.9733 1.31858 3.5114 3.19273 4.4197 5.38544.9082 2.1927 1.1459 4.6055.6828 6.9333-.463 2.3278-1.6059 4.466-3.2841 6.1442s-3.8164 2.8211-6.1442 3.2841-4.7406.2254-6.9333-.6828c-2.19271-.9083-4.06685-2.4464-5.38543-4.4198-1.31858-1.9733-2.02236-4.2934-2.02236-6.6668 0-3.1826 1.26428-6.23485 3.51472-8.48528 2.25043-2.25044 5.30267-3.51472 8.48527-3.51472zm0-4c-3.1645 0-6.25793.938384-8.88912 2.69649-2.63118 1.7581-4.68194 4.25696-5.89295 7.18057-1.2109975 2.92364-1.527851 6.14064-.910487 9.24434.617363 3.1037 2.141217 5.9547 4.378857 8.1923s5.08857 3.7615 8.1923 4.3789c3.1037.6173 6.3207.3005 9.2443-.9105 2.9237-1.211 5.4225-3.2618 7.1806-5.893s2.6965-5.7246 2.6965-8.8891c0-4.2435-1.6857-8.31313-4.6863-11.31371s-7.0702-4.68629-11.3137-4.68629z"/><path d="m16 24.29c2.1536-.1478 4.1708-1.1076 5.644-2.6854s2.2926-3.656 2.2926-5.8146-.8194-4.2368-2.2926-5.81462c-1.4732-1.57779-3.4904-2.53756-5.644-2.68538"/></g></svg>