<svg fill="none" height="43" viewBox="0 0 48 43" width="48" xmlns="http://www.w3.org/2000/svg"><g fill="#283645" opacity=".3"><path d="m33.12 17.88-17.88-17.88-2.83 2.83 4.76 4.76-10.29 10.29c-.5618.5625-.87736 1.325-.87736 2.12s.31556 1.5575.87736 2.12l11 11c.5625.5618 1.325.8774 2.12.8774s1.5575-.3156 2.12-.8774l11-11c.5618-.5625.8774-1.325.8774-2.12s-.3156-1.5575-.8774-2.12zm-22.71 2.12 9.59-9.58 9.59 9.58zm27.59 3s-4 4.33-4 7c0 1.0609.4214 2.0783 1.1716 2.8284.7501.7502 1.7675 1.1716 2.8284 1.1716s2.0783-.4214 2.8284-1.1716c.7502-.7501 1.1716-1.7675 1.1716-2.8284 0-2.67-4-7-4-7z"/><path d="m48 40h-48v3h48z"/></g></svg>