<svg fill="none" height="12" viewBox="0 0 13 12" width="13" xmlns="http://www.w3.org/2000/svg"><path d="m6.46867 12c-.10977.0014-.21855-.0202-.31879-.0633-.10025-.0432-.18955-.1069-.26173-.1867-3.92889-4.33-4.8515-5.31-5.027734-5.58-.553328-.67503-.85625438-1.50944-.860416-2.37.00441359-.72575.223059-1.43527.63034-2.0455.40728-.61022.98634-1.095902 1.66939-1.400172.68305-.3042704 1.44182-.4145412 2.18748-.317903.74566.096638 1.44735.396186 2.02293.863575.7176-.580509 1.62398-.89909289 2.56052-.9 1.04294.00264761 2.04224.404172 2.77874 1.11652.7365.71236 1.1501 1.67739 1.1501 2.68348.0145.87715-.315 1.7272-.9226 2.38l-5.03807 5.56c-.07103.0785-.15867.1414-.25701.1846-.09834.0431-.20512.0654-.31315.0654zm-4.39538-6.72c.2177.26 2.56052 2.84 4.39538 4.86l4.47833-4.94c.3603-.38202.5535-.8837.539-1.4 0-.61795-.2544-1.2106-.7074-1.64756s-1.06734-.68244-1.70794-.68244c-.38059.00297-.75554.08909-1.09668.2519-.34113.1628-.63959.39806-.87295.6881-.07537.08603-.16893.15553-.27442.20382-.10548.04829-.22046.07427-.3372.07618-.11604-.00153-.23005-.0295-.33274-.08164s-.19115-.12696-.25815-.21836c-.23068-.28896-.52765-.52242-.86759-.68204-.33994-.15963-.71361-.24108-1.09167-.23796-.45421.00534-.89773.1336-1.28007.37016-.38235.23657-.68816.57195-.88261.96794-.19445.396-.26974.83671-.21728 1.27196s.23055.84754.51399 1.18994z" fill="#d22856"/></svg>