<svg viewBox="0 0 74 74" xmlns="http://www.w3.org/2000/svg"><path d="m74 0-37 37-37 37v-33l41-41z" fill="#d22856"/><g fill="#fff"><path d="m27.9191 37.223-.9329.9329-5.0077-1.2084 1.1746 5.0416-.8701.8701-1.3438-6.0422-5.5636-1.1843.9087-.9087 4.5534 1.0441-1.0296-4.5679.8749-.8749 1.1553 5.5346z"/><path d="m21.8721 29.1362.7686-.7686 3.9298 3.9298c.7251.7251 1.3583 1.4034 1.8997 2.035l.0386-.0386-1.9335-9.8608.8991-.8991 7.0669 7.0669-.7734.7734-3.8911-3.8912c-.6477-.6477-1.3003-1.355-1.9577-2.122l-.0435.0435 1.9625 9.8995-.8991.8991z"/><path d="m38.6549 26.4873-.8218.8217-6.337-6.337-2.238 2.238-.7299-.7299 5.2978-5.2978.7298.7299-2.238 2.2381z"/></g></svg>
