<svg fill="none" height="47" viewBox="0 0 43 47" width="43" xmlns="http://www.w3.org/2000/svg"><g fill="#a4c639"><path d="m34.8864 14.0617h-26.77281v.3305 18.8033c-.01061.9123.33289 1.7945.96091 2.4678.62801.6734 1.4936 1.0875 2.4215 1.1586v7.4532c.0442.7371.3741 1.4297.9221 1.9363.548.5065 1.2728.7886 2.0259.7886.7532 0 1.4779-.2821 2.0259-.7886.548-.5066.8779-1.1992.9222-1.9363v-7.4331h8.2362v7.4331c.0443.7371.3742 1.4297.9222 1.9363.548.5065 1.2727.7886 2.0259.7886s1.4779-.2821 2.0259-.7886c.548-.5066.8779-1.1992.9222-1.9363v-7.4532c.9287-.071 1.7955-.4848 2.4251-1.1579.6297-.673.9754-1.5552.9674-2.4685v-18.7932c-.0102-.1102-.0204-.2204-.0306-.3406z"/><path d="m2.95318 15.7446c.78053 0 1.52908.304 2.08099.8451.55192.541.86198 1.2749.86198 2.04v12.402c.00134.3797-.07379.7559-.22108 1.1071-.1473.3512-.36386.6705-.63728.9394-.27341.269-.59829.4824-.95602.628-.35772.1456-.74125.2206-1.12859.2206-.78323 0-1.53438-.305-2.088213-.848-.553829-.5429-.864967-1.2793-.864967-2.0471v-12.402c-.00000233-.3797.076457-.7557.224993-1.1064.148537-.3507.366228-.6692.640591-.9372.274366-.268.599996-.4803.958236-.6247s.74203-.2181 1.12936-.2168z"/><path d="m40.057 15.7446c.7805 0 1.5291.304 2.081.8451.5519.541.862 1.2749.862 2.04v12.402c.0013.3797-.0738.7559-.2211 1.1071s-.3639.6705-.6373.9394c-.2734.269-.5983.4824-.956.628s-.7412.2206-1.1286.2206c-.7832 0-1.5344-.305-2.0882-.848-.5538-.5429-.865-1.2793-.865-2.0471v-12.402c0-.3797.0765-.7557.225-1.1064.1486-.3507.3663-.6692.6406-.9372.2744-.268.6-.4803.9583-.6247.3582-.1444.742-.2181 1.1293-.2168z"/><path d="m8.1749 12.0581h26.5684c-.0676-2.75626-1.2385-5.37584-3.2597-7.29289l2.5649-4.267554c.0268-.036992.0451-.079308.0534-.123967.0084-.044659.0067-.090574-.005-.13451s-.0331-.084824-.0626-.119783c-.0296-.0349597-.0666-.0631398-.1085-.0825552-.071-.03732463-.1539-.04670559-.2317-.0262328-.0778.0204728-.1448.06926-.1872.136428l-2.4218 4.157354c-2.7595-2.1066-6.1302-3.29931-9.626-3.406025-3.4746.134625-6.8207 1.324885-9.5748 3.406025l-2.38098-4.117283c-.03753-.074868-.10335-.1324449-.18349-.1605022-.08013-.02805737-.16827-.02438543-.24569.010236-.06926.0434338-.11929.1108522-.14012.1888252s-.01094.160778.02772.231919l2.49336 4.237495c-2.04231 1.93341-3.2215 4.58034-3.2802 7.36302zm17.6987-5.20921c0-.39853.1615-.78073.4489-1.06254.2875-.2818.6773-.44012 1.0839-.44012.4065 0 .7964.15832 1.0838.44012.2875.28181.4489.66401.4489 1.06254s-.1614.78074-.4489 1.06254c-.2874.28181-.6773.44012-1.0838.44012-.4066 0-.7964-.15831-1.0839-.44012-.2874-.2818-.4489-.66401-.4489-1.06254zm-11.3836 0c0-.39853.1615-.78073.449-1.06254.2874-.2818.6773-.44012 1.0838-.44012s.7964.15832 1.0839.44012c.2874.28181.4489.66401.4489 1.06254s-.1615.78074-.4489 1.06254c-.2875.28181-.6774.44012-1.0839.44012s-.7964-.15831-1.0838-.44012c-.2875-.2818-.449-.66401-.449-1.06254z"/></g></svg>