<svg fill="none" height="14" viewBox="0 0 18 14" width="18" xmlns="http://www.w3.org/2000/svg"><path d="m11.5641.168904c.6817-.2150555 1.4196-.2249968 2.1078-.028397.6883.1966 1.2914.589631 1.7228 1.122683.7106-.20934 1.4108-.447231 2.1316-.656573-.0099.319231-.0964.632453-.2531.917103s-.3797.53366-.6531.72908c.2525.02597.508-.00168.7472-.08083.2391-.07916.4555-.20773.6327-.37591-.099.41381-.3001.80089-.5877 1.13102-.2876.33012-.6538.59436-1.0702.77208-.2471 6.27072-3.3673 10.46704-10.68878 10.29574h-.50458c-.44279 0-4.417619-.4282-5.14874-1.7508 1.75201.2458 3.53888-.1465 4.98398-1.0943-1.02975-.2855-2.8524-.4472-3.16133-2.74046.38815.13403.80945.16372 1.21511.08564-1.27689-.78979-2.697943-1.45588-2.615563-3.50171.397437.30555.904703.4618 1.421053.43771-.74142-.22837-2.09039-3.12109-.947369-4.605506 1.925629 1.722306 3.964529 3.349456 7.589239 3.511226.22655-2.13148 1.20481-3.558804 3.07898-4.167796z" fill="#d22856"/></svg>