<svg fill="none" height="34" viewBox="0 0 27 34" width="27" xmlns="http://www.w3.org/2000/svg"><path d="m13.6426.0157537-.1426-.0157537-13.5 1.40733v24.60557l13.5 7.9871 13.5-7.9871v-24.60557zm11.5918 24.9993463-11.7344 6.9422-11.73439-6.9422v-10.0858l11.68509 6.9158.0194 1.2533-8.01659-4.7436-.01056 1.2253 8.04645 4.8084.0194 1.2865-8.04472-4.7576-.01057 1.2253 8.04649 4.8084 8.1239-4.8329v-1.2253-3.9839l3.6193-2.1495zm0-11.5632-3.2197 1.88-1.4822.8752-7.0659-4.187-.0106 1.2253 6.0397 3.5726-.0528.0315-.1303.0752-.859.4919-4.987-2.9477-.0106 1.2253 3.9361 2.328-.933.6092-.0211.0122-2.9714-1.7416-.0106 1.2253 1.9469 1.1342-1.9874 1.1868-11.6182-6.8721 11.6376-6.95789zm0-1.2253-11.7943-6.91585-11.67449 6.90885v-9.2299l11.73439-1.22528 11.7344 1.22528z" fill="#d22856"/></svg>