<svg fill="none" height="56" viewBox="0 0 47 56" width="47" xmlns="http://www.w3.org/2000/svg"><path d="m39.2449 29.7391c.0095 2.4155.7491 4.7753 2.1274 6.7877 1.3783 2.0125 3.3348 3.5894 5.6277 4.5359-.9221 2.8295-2.2699 5.5117-3.9997 7.96-2.4018 3.4129-4.9054 6.8159-8.8441 6.9046-3.9386.0888-5.0886-2.2193-9.5259-2.2193s-5.8011 2.1503-9.4649 2.2884-6.68651-3.7186-9.08835-7.1118c-4.95635-6.9046-8.75248-19.6386-3.66383-28.2004 1.19673-2.0719 2.92777-3.8073 5.02386-5.0366s4.48542-1.9103 6.93452-1.9765c3.7248-.069 7.2462 2.4265 9.5259 2.4265s6.5644-3.0084 11.0627-2.5646c2.0835.0733 4.1213.6127 5.954 1.5761 1.8326.9634 3.4105 2.3246 4.6101 3.9772-.2748.1677-6.3099 3.5707-6.2489 10.6528zm-7.2666-20.80256c2.1808-2.47678 3.2604-5.69009 3.0023-8.93654-3.3045.302095-6.3639 1.81996-8.5489 4.2414-1.8625 2.09111-3.501 5.44478-3.0532 8.6604 3.2465.2466 6.5542-1.598 8.5693-3.94553" fill="#fff"/></svg>