<svg fill="none" height="34" width="27" xmlns="http://www.w3.org/2000/svg"><path d="M13.64.02L13.5 0 0 1.4v24.61L13.5 34 27 26.01V1.41zm11.6 25L13.5 31.96 1.77 25.02v-10.1l11.68 6.93.02 1.25-8.02-4.75v1.23l8.04 4.8.02 1.3-8.05-4.76v1.22l8.04 4.81 8.12-4.83V16.9l3.62-2.15zm0-11.57L22 15.33l-1.48.88-7.06-4.19-.01 1.23 6.04 3.57-.06.03-.13.07-.86.5-4.98-2.95-.01 1.22 3.93 2.33-.93.61-.02.01-2.97-1.74-.01 1.23 1.94 1.13-1.98 1.19L1.8 13.58l11.63-6.96zm0-1.22L13.43 5.3 1.77 12.22V2.99L13.5 1.76 25.23 3z" fill="#d22856"/></svg>