<svg fill="none" height="27" viewBox="0 0 27 27" width="27" xmlns="http://www.w3.org/2000/svg"><path d="m15.6444 13.5065 10.9087-10.91996c.1416-.13987.254-.30645.3307-.49009s.1162-.38068.1162-.57971c0-.19902-.0395-.39606-.1162-.579699-.0767-.183638-.1891-.350221-.3307-.490089-.2851-.281053-.6694-.43860768-1.0697-.43860768s-.7846.15755468-1.0697.43860768l-10.9087 10.919948-10.91874-10.919948c-.13985-.141586-.30642-.253999-.49004-.330722-.18362-.0767232-.38064-.11623-.57964-.11623s-.39602.0395068-.579639.11623c-.183619.076723-.350184.189136-.490037.330722-.281022.285138-.43856057.669428-.43856057 1.069788 0 .40037.15753857.78466.43856057 1.0698l10.918796 10.91996-10.918796 10.9099c-.141571.1398-.253972.3064-.330687.49-.0767145.1837-.116217.3807-.116217.5797 0 .1991.0395025.3961.116217.5797.076715.1837.189116.3503.330687.4901.283819.2835.668546.4428 1.069676.4428s.78586-.1593 1.06968-.4428l10.91874-10.9098 10.9087 10.9098c.2843.2831.6686.4426 1.0697.4441.2992-.0003.5916-.0892.8403-.2556.2487-.1663.4425-.4027.5569-.6791.1145-.2765.1445-.5806.0862-.8741s-.2023-.5631-.4137-.7748z" fill="#f25b26"/></svg>