<svg fill="none" height="21" viewBox="0 0 31 21" width="31" xmlns="http://www.w3.org/2000/svg"><path d="m30.5559.429509c-.1425-.136097-.312-.24412-.4988-.317838-.1868-.0737174-.3871-.111671-.5895-.111671-.2023 0-.4026.0379536-.5894.111671-.1868.073718-.3563.181741-.4988.317838l-18.005 17.066291-7.7967-7.3861c-.29056-.25645-.67487-.39608-1.07197-.38945-.39709.00664-.77596.15903-1.056791.42505-.280831.2661-.44169396.625-.4487002 1.0011-.00700624.3762.1403922.7403.4111412 1.0155l8.87986 8.4122c.14186.1353.31063.2426.49656.3157.18592.0731.3853.1106.5866.1102.4062-.0014.7954-.1544 1.0832-.4259l19.0983-18.09238c.2846-.2735.4441-.64209.4441-1.02611 0-.38401-.1595-.752607-.4441-1.026101z" fill="#3dc644"/></svg>