<svg fill="none" height="24" viewBox="0 0 50 24" width="50" xmlns="http://www.w3.org/2000/svg"><path d="m1.13659.00020839c-.150078-.0027239-.299232.02128011-.438499.07056971-.139268.0492899-.265774.1228469-.371918.2162519-.106143.093406-.189731.20473-.2457427.327285-.0560113.122555-.08328886.253809-.08019349.385875v1.99997c0 .26521.11972219.51956.33283019.70709.213107.18753.502143.29289.803523.29289h47.72681c.1501.00272.2992-.02128.4385-.07057s.2658-.12285.3719-.21625c.1062-.09341.1898-.20473.2458-.32729.056-.12255.0833-.25381.0802-.38587v-1.99997c0-.265211-.1198-.51956-.3329-.707093-.2131-.187534-.5021-.29288861-.8035-.29288861zm0 9.99979161c-.150078-.00269-.299232.0213-.438499.0706-.139268.0493-.265774.1229-.371918.2163-.106143.0934-.189731.2047-.2457427.3272-.0560113.1226-.08328886.2539-.08019349.3859v2c0 .2652.11972219.5195.33283019.7071.213107.1875.502143.2929.803523.2929h47.72681c.1501.0027.2992-.0213.4385-.0706s.2658-.1229.3719-.2163c.1062-.0934.1898-.2047.2458-.3272.056-.1226.0833-.2539.0802-.3859v-2c0-.2652-.1198-.5195-.3329-.7071-.2131-.1875-.5021-.2929-.8035-.2929zm0 9.9999c-.150078-.0028-.299232.0212-.438499.0705-.139268.0493-.265774.1229-.371918.2163-.106143.0934-.189731.2047-.2457427.3273-.0560113.1225-.08328886.2538-.08019349.3858v2c0 .2652.11972219.5196.33283019.7071.213107.1875.502143.2929.803523.2929h47.72681c.1501.0027.2992-.0213.4385-.0706s.2658-.1228.3719-.2162c.1062-.0934.1898-.2048.2458-.3273.056-.1226.0833-.2538.0802-.3859v-2c0-.2652-.1198-.5195-.3329-.7071-.2131-.1875-.5021-.2928-.8035-.2928z" fill="#fff"/></svg>