<svg fill="none" height="40" viewBox="0 0 145 40" width="145" xmlns="http://www.w3.org/2000/svg"><g fill="#283645"><path d="m71.005 18.5486c-.0001-.3361.1308-.6588.3647-.8992.234-.2404.5523-.3793.8871-.3871h7.1332c5.0569 0 8.3851 2.7022 8.3851 7.1295v.0598c0 4.8461-4.0336 7.3589-8.8024 7.3589h-5.4343v6.8005c.0155.1764-.0056.3541-.0622.5219-.0566.1677-.1473.3218-.2665.4525-.1191.1306-.264.235-.4255.3064-.1615.0713-.3361.1082-.5125.1082-.1765 0-.351-.0369-.5125-.1082-.1615-.0714-.3065-.1758-.4256-.3064-.1191-.1307-.2099-.2848-.2665-.4525-.0565-.1678-.0777-.3455-.0621-.5219zm8.0671 10.9685c3.7057 0 6.1398-1.9943 6.1398-4.9857v-.0598c0-3.2108-2.3944-4.876-5.961-4.876h-5.6629v9.8816z"/><path d="m92.5935 18.389c-.0156-.1764.0056-.3541.0621-.5219.0566-.1677.1474-.3219.2665-.4525.1191-.1307.2641-.235.4256-.3064.1615-.0713.336-.1082.5125-.1082.1764 0 .351.0369.5125.1082.1615.0714.3064.1757.4255.3064.1192.1306.2099.2848.2665.4525.0566.1678.0778.3455.0622.5219v20.222c.0156.1764-.0056.3541-.0622.5219-.0566.1677-.1473.3219-.2665.4525-.1191.1307-.264.235-.4255.3064-.1615.0713-.3361.1082-.5125.1082-.1765 0-.351-.0369-.5125-.1082-.1615-.0714-.3065-.1757-.4256-.3064-.1191-.1306-.2099-.2848-.2665-.4525-.0565-.1678-.0777-.3455-.0621-.5219z"/><path d="m101.674 18.419c.008-.3299.142-.644.376-.8764.233-.2324.547-.365.876-.3701h.347c.259.0053.511.0757.735.2046.224.129.412.3123.547.5333l13.601 17.4v-16.9513c0-.3279.13-.6424.361-.8743s.544-.3621.871-.3621.64.1302.871.3621.361.5464.361.8743v20.2917c.005.1543-.021.3081-.076.452-.056.1439-.141.2749-.248.385-.108.1101-.237.197-.38.2554-.142.0584-.295.0871-.449.0843h-.129c-.264-.0183-.52-.0981-.747-.2331-.228-.1351-.421-.3216-.564-.5447l-13.909-17.8089v17.41c-.002.3214-.127.6297-.349.8616-.222.2318-.523.3696-.843.3849-.325-.0053-.635-.1392-.862-.3727s-.353-.5475-.35-.8738v-20.2318z"/><path d="m126.938 18.389c-.015-.1764.006-.3541.063-.5219.056-.1677.147-.3219.266-.4525.119-.1307.264-.235.426-.3064.161-.0713.336-.1082.512-.1082.177 0 .351.0369.513.1082.161.0714.306.1757.425.3064.119.1306.21.2848.267.4525.056.1678.077.3455.062.5219v12.2947l12.756-13.1323c.262-.2717.617-.4323.994-.4487.325.0128.633.1501.86.3838s.357.546.362.8726c-.007.1699-.048.3366-.119.4907-.072.154-.173.2923-.299.4067l-7.948 7.8974 8.574 10.5297c.224.2605.348.5932.348.9373-.004.1724-.042.3424-.111.5001-.07.1576-.17.2999-.295.4185-.124.1187-.271.2114-.432.2728-.16.0614-.331.0903-.503.085-.2-.0082-.395-.0651-.568-.1659s-.319-.2423-.426-.4125l-8.365-10.4599-4.828 4.8461v4.8859c0 .1663-.033.331-.096.4846-.064.1537-.157.2933-.274.4109s-.256.2108-.409.2745c-.153.0636-.317.0964-.483.0964s-.33-.0328-.483-.0964c-.153-.0637-.292-.1569-.409-.2745s-.21-.2572-.274-.4109c-.063-.1536-.096-.3183-.096-.4846v-20.202z"/></g><path clip-rule="evenodd" d="m53.8917 6.58616 5.0385 21.14504c.0711.2179.0882.4503.0498.6766-.0383.2263-.131.4394-.2698.6206-.1387.1812-.3193.3248-.5257.4181-.2065.0933-.4323.1335-.6577.117h-4.0067c-.6903 5.8112-5.5707 10.3149-11.4886 10.3149s-10.7983-4.5037-11.4885-10.3149h-1.9652c-.6909 5.8785-5.6251 10.4365-11.6093 10.4365-5.9943 0-10.935-4.5734-11.61279-10.4663h-3.90557c-.22053.0108-.4404-.0323-.641226-.1255-.200829-.0932-.376795-.2339-.513203-.4103-.136407-.1765-.2292958-.3835-.2709088-.6038-.041613-.2204-.03074214-.4477.0317047-.6629l5.0482631-21.14504c.35085-2.32744 2.53388-6.58616 8.38133-6.58616.3877 0 .7595.156518 1.0336.435122.2742.278605.4282.656478.4282 1.050478 0 .39401-.154.77188-.4282 1.05048-.2741.2786-.6459.43512-1.0336.43512-4.7072 0-5.43813 3.6942-5.4966 4.10026l-4.6487 19.53074h2.03387c.74622-5.8175 5.65253-10.3104 11.59383-10.3104 5.9381 0 10.8422 4.488 11.5926 10.3008l1.9976.0091c.7456-5.7499 5.598-10.1883 11.4728-10.1883 5.8863 0 10.7461 4.4557 11.4771 10.2219v-.0529h2.1373l-4.6389-19.51094c-.0683-.40606-.77-4.10026-5.4966-4.10026-.3877 0-.7595-.15652-1.0337-.43512-.2741-.2786-.4282-.65647-.4282-1.05048 0-.394.1541-.771873.4282-1.050478.2742-.278604.646-.435122 1.0337-.435122 5.8474 0 8.0304 4.25872 8.3813 6.58616zm-28.2195 22.97734c.0726-.4617.1103-.9352.1103-1.4176 0-.5295-.0454-1.0482-.1325-1.5524-.7248-4.1953-4.3359-7.3838-8.6815-7.3838-4.3482 0-7.96097 3.1923-8.68279 7.3913-.08626.5018-.13124 1.018-.13124 1.5449 0 .4746.03649.9405.10678 1.3951.66066 4.2726 4.30745 7.5411 8.70725 7.5411 4.392 0 8.0338-3.257 8.7037-7.5186zm24.9416 0c.0736-.4615.1118-.935.1118-1.4176 0-4.8682-3.8925-8.8146-8.6941-8.8146s-8.6941 3.9464-8.6941 8.8146c0 .4826.0382.9561.1118 1.4176.6688 4.1942 4.2566 7.397 8.5823 7.397s7.9135-3.2028 8.5823-7.397z" fill="#d22856" fill-rule="evenodd"/></svg>