<svg fill="none" height="63" viewBox="0 0 79 63" width="79" xmlns="http://www.w3.org/2000/svg"><g fill="#efefef"><path d="m35.1468 6.97257-4.308-6.97257c-2.4502 1.48142-30.8388 12.0588-30.8388 39.1293 0 7.1405.341426 23.8707 18.9793 23.8707 11.2369 0 13.9985-10.1527 13.9985-13.4217 0-21.7275-21.4697-13.9945-21.4697-13.9945 0-17.8067 19.883-26.51749 23.6387-28.61123z"/><path d="m79 6.97257-4.2678-6.97257c-2.4302 1.48142-30.8489 12.0588-30.8489 39.1293 0 7.1405.3414 23.8707 18.9893 23.8707 11.2269 0 13.9885-10.1527 13.9885-13.4217 0-21.7275-21.4697-13.9945-21.4697-13.9945 0-17.8067 19.9232-26.51749 23.6086-28.61123z"/></g></svg>