<svg fill="none" height="345" viewBox="0 0 298 345" width="298" xmlns="http://www.w3.org/2000/svg"><path d="m264.586 102.035 5.35-5.359c7.72-7.7181 9.13-18.9353 3.13-24.9238s-17.22-4.5989-24.93 3.1192l-5.39 5.3887c-21.442-17.4127-47.326-28.4867-74.73-31.9721v-9.5876h7.66c10.91 0 19.84-8.7079 19.84-19.3452 0-10.63737-8.93-19.3552-19.84-19.3552h-53.32c-10.91 0-19.84 8.70784-19.84 19.3552 0 10.6473 8.93 19.3452 19.84 19.3452h7.66v9.5876c-32.7319 4.2036-63.1421 19.1522-86.4588 42.5004-23.3168 23.3486-38.22051 53.7746-42.37283 86.5056s2.68176 65.914 19.42993 94.342c16.7482 28.429 42.4628 50.494 73.109 62.734 30.6457 12.24 64.4897 13.962 96.2207 4.896 31.731-9.067 59.553-28.408 79.102-54.989 19.548-26.582 29.717-58.9 28.91-91.883s-12.544-64.765-33.37-90.359zm-115.57 204.149c-21.79 0-43.09-6.46-61.2078-18.563-18.1176-12.103-32.2383-29.306-40.5766-49.432-8.3382-20.127-10.5193-42.273-6.2676-63.639 4.2518-21.366 14.7454-40.992 30.154-56.395 15.4085-15.403 35.04-25.8925 56.411-30.1412 21.372-4.2488 43.524-2.0661 63.655 6.2718 20.13 8.3384 37.336 22.4564 49.44 40.5714 12.105 18.114 18.564 39.41 18.562 61.194-.002 29.21-11.611 57.223-32.271 77.876-20.661 20.654-48.681 32.257-77.899 32.257z" fill="#dedede"/><circle cx="149" cy="196" r="117" stroke="#d22856" stroke-width="18"/><path d="m145.133 239h-59.883v-12.598l21.504-21.738c6.367-6.523 10.527-11.035 12.48-13.535 1.954-2.539 3.36-4.883 4.219-7.031.859-2.149 1.289-4.375 1.289-6.68 0-3.438-.957-5.996-2.871-7.676-1.875-1.68-4.394-2.519-7.559-2.519-3.32 0-6.542.761-9.667 2.285-3.125 1.523-6.3872 3.691-9.7856 6.504l-9.8438-11.66c4.2188-3.594 7.7149-6.133 10.4883-7.618 2.7734-1.484 5.8011-2.617 9.0821-3.398 3.281-.82 6.953-1.231 11.016-1.231 5.351 0 10.078.977 14.179 2.93 4.102 1.953 7.285 4.688 9.551 8.203 2.266 3.516 3.398 7.539 3.398 12.071 0 3.945-.703 7.656-2.109 11.132-1.367 3.438-3.516 6.973-6.445 10.606-2.891 3.633-8.008 8.808-15.352 15.527l-11.015 10.371v.821h37.324zm70.488-17.754h-10.312v17.754h-17.696v-17.754h-36.562v-12.598l37.558-55.312h16.7v53.848h10.312zm-28.008-14.062v-14.532c0-2.422.098-5.937.293-10.547.196-4.609.352-7.285.469-8.027h-.469c-1.445 3.203-3.183 6.328-5.215 9.375l-15.703 23.731z" fill="#d22856"/></svg>