<svg viewBox="0 0 78 78" xmlns="http://www.w3.org/2000/svg"><radialGradient id="a" cx="39" cy="39" gradientUnits="userSpaceOnUse" r="46.4"><stop offset=".9" stop-color="#fff0ff"/><stop offset="1" stop-color="#fffaff" stop-opacity=".2"/></radialGradient><path d="M78 69.5c0 4.7-3.8 8.5-8.5 8.5h-61A8.5 8.5 0 010 69.5v-61C0 3.8 3.8 0 8.5 0h61C74.2 0 78 3.8 78 8.5z" fill="url(#a)"/><path d="M52.8 23.3h.7a2 2 0 00-.9-.9c-.4-.2-.9-.3-1.4-.3-.4 0-.9-.2-1.3-.4-.3-.3-.6-.6-.7-1l-2.2.7h.2c.6 0 1.2.2 1.6.6s.6.9.6 1.5v.3c1.1-.4 2.2-.5 3.4-.5z" fill="#382301"/><path d="M71.5 32.5L66 9.9c-.4-2.5-2.8-7-9.3-7a2 2 0 00-1.2.4c-.3.3-.4.7-.4 1 0 .4.1.8.4 1.2.3.3.7.4 1.2.4 5.2 0 6.1 4 6.1 4.4l5.1 20.9h-2.2c-.5-3.7-2.6-7-5.8-9-1 .4-1.6 1.3-1.7 2.4v.4c1.3.9 2.4 2 3.1 3.5.7 1.4 1.2 2.9 1.3 4.5l-.2 1.6a9.4 9.4 0 01-3.2 5.8c-3.7 3-9 3-12.7 0a9 9 0 01-3.2-5.8l-.2-1.6c.1-1.5.5-3 1.2-4.4a2 2 0 01-2.1-2.1L42 26c-1 1.6-1.7 3.4-1.9 5.3H38c-.3-3.1-1.8-6-4.2-8.2-5-4.3-12.3-4.3-17.3 0a13 13 0 00-4.3 8.2H10l5.1-20.8c.1-.5.9-4.5 6.1-4.5.5 0 .9-.2 1.3-.5.6-.6.6-1.5 0-2.1-.3-.3-.7-.5-1.2-.5-6.5 0-8.9 4.6-9.3 7.1L6.4 32.5v.7l.3.6.5.4.7.2h4.3l.4 1.9.1-.3c0-1.2 1-2.2 2.2-2.2h.5l-.1-1 .1-1.6c.4-2.3 1.6-4.4 3.3-5.9 3.7-3 9-3 12.7 0a9.5 9.5 0 013.1 5.9l.2 1.6c0 2.5-1.1 5-2.9 6.7a9.7 9.7 0 01-12.7.9c-.4.3-.9.5-1.4.5-.2 0-.5.1-.6.3l-.2.5-.2.8c4.9 4 12 3.9 16.8-.2 2.3-2.1 3.8-4.9 4.3-8h2c.3 3.1 1.8 6 4.2 8.2 5 4.3 12.3 4.3 17.3 0a13 13 0 004.3-8.2H70c.2.1.5 0 .7-.1l.6-.4.2-.6c.2-.1.1-.4 0-.7z" fill="#382301"/><path d="M60 21.1c-.6 0-1.2-.1-1.7-.3-.6-.3-1.1-.6-1.6-1.1-.8-.9-1.3-2-1.3-3.2 0 1.2-.5 2.4-1.4 3.2-.8.9-2 1.4-3.2 1.4 1.2 0 2.4.4 3.2 1.3.9.8 1.4 2 1.4 3.2a4.4 4.4 0 014.6-4.5zm-13.2 3.5a2.7 2.7 0 01-2.8-2.7c0 .7-.3 1.4-.9 1.9a3 3 0 01-2 .8c.8 0 1.5.3 2 .9.6.5.9 1.2.9 1.9 0-.7.3-1.4.8-1.9.5-.6 1.2-.9 2-.9zm-28 14.6c-.7 0-1.4-.3-2-.8-.5-.5-.8-1.2-.8-1.9 0 .8-.3 1.5-.9 2a3 3 0 01-2 .8c.8 0 1.5.3 2.1.8.5.5.8 1.3.8 2 0-.7.3-1.5.8-2s1.2-.9 2-.9z" fill="#d22856"/><path d="M12.4 50.5c0-.2.1-.5.3-.6l.6-.3h5.1c3.6 0 6 1.9 6 5.1 0 3.5-2.9 5.3-6.3 5.3h-3.9v5.3l-.2.3-.3.2-.4.1-.4-.1-.3-.2-.2-.3c0-.1-.1-.2 0-.4zm5.8 7.9c2.7 0 4.4-1.4 4.4-3.6 0-2.3-1.7-3.5-4.3-3.5h-4.1v7.1zm9.7-8V50l.2-.3.3-.2.4-.1.4.1.3.2.2.3c0 .1.1.2 0 .4v14.9l-.2.3-.3.2-.4.1-.4-.1-.3-.2-.2-.3c0-.1-.1-.2 0-.4zm6.5 0c0-.2.1-.5.3-.6l.6-.3h.2l.5.1.4.4 9.8 12.5V50.4c0-.2.1-.5.3-.6l.6-.3c.2 0 .5.1.6.3l.3.6V65l-.1.3-.2.3-.3.2-.3.1H47a.8.8 0 01-.5-.2.8.8 0 01-.4-.4l-10-12.8V65c0 .2-.1.5-.3.6l-.6.3c-.2 0-.5-.1-.6-.3l-.3-.6zm18.2 0V50l.2-.3.3-.2.4-.1.4.1.3.2.2.3c0 .1.1.2 0 .4v8.8l9.2-9.4c.2-.2.4-.3.7-.3.2 0 .5.1.6.3l.3.6-.1.4-.2.3-5.7 5.7 6.2 7.6c.2.2.3.4.3.7l-.1.4-.2.3-.3.2-.4.1-.4-.1-.3-.3-6-7.5-3.5 3.5v3.5l-.1.3-.2.3-.3.2-.3.1-.3-.1-.3-.2-.2-.3-.1-.3z" fill="#283645"/></svg>