<svg version="1" xmlns="http://www.w3.org/2000/svg" width="933.333" height="933.333" viewBox="0 0 700.000000 700.000000"><path d="M181.3 44.5c-26.6 4.8-46.6 19.7-57.2 42.6C120.7 94.3 70 294.2 70 300.2c0 4.5 3.5 9.8 8 12 3 1.5 6.4 1.8 22.7 1.8 17.4 0 19.2.2 19.7 1.7.2 1 1 4.4 1.6 7.5 1.2 6.2 3 7.8 3 2.8 0-8.9 8.8-17 18.5-17h4.6l-.6-6.8c-2.5-24.7 13.2-55.9 35.5-70.7 15.3-10.2 29.6-14.5 48-14.5 37 0 66.9 21.1 77.8 55 7.4 23 6.6 42-2.8 61.6-10.1 20.9-30.3 37.9-53.2 44.5-10.2 2.9-28.7 3.7-39 1.6-9.6-2-21.7-6.8-28.2-11l-4.9-3.3-4.5 2.3c-2.5 1.3-5.8 2.3-7.4 2.3-1.5 0-3.7.9-4.7 1.9-2.1 2.1-4.6 12.1-3.3 13 14.7 10.4 24.8 15.5 38.4 19.5 24.6 7.1 52.3 5.6 75.5-4.1 13.9-5.9 23.2-12.2 34.3-23.4 15.9-15.9 25.2-32.5 30.1-53.7l2.1-9.2h8.4c4.6 0 8.4.2 8.4.4s.7 4 1.5 8.3c8.3 43.6 41.4 77.2 85.4 86.6 13.2 2.8 33 2.8 46.1 0 45.2-9.7 78-43.5 87-89.6l1.1-5.7h20.8c20 0 20.9-.1 24.2-2.3 2.3-1.5 3.8-3.7 4.7-6.4 1.3-4.1.7-7-23.2-104.5C592.1 145.6 580.3 98 579.4 95c-.9-3-3.2-8.4-5.1-11.9-13.4-24.9-38.2-39.2-68-39.5-11.9-.1-14.8 1.3-17.3 8.2-1.3 3.7-1.3 4.7 0 8.4 2.1 5.8 6.6 8.8 13.6 8.8 14.7 0 30.1 5.7 38.7 14.4 8 8 9.9 12.6 16.1 38.1 3 12.6 13.2 54.3 22.6 92.5 9.3 38.2 17 70.1 17 70.7 0 1-2.5 1.3-9 1.3h-9l-.6-2.8c-3.6-16.2-7.5-26.7-14.7-38.7-5.8-9.9-17.9-23.3-27.6-30.6-6.1-4.7-6.4-4.8-9.1-3.4-8.9 4.6-15.3 20-9.7 23.4 16.6 10.4 30 32.7 34.3 57.2 1.3 7.8 1.3 9.8-.1 19.2-3.1 20.8-10.1 35.4-23.3 48.4-10.4 10.2-22.5 17.1-37.9 21.5-6.5 1.9-10.2 2.2-21.8 2.2-12.2-.1-15.1-.4-23-2.8-10.8-3.3-21.6-8.9-30.2-15.8-27.6-22-37.6-63.3-22.9-95.3l2.4-5.3-3.4-.5c-7.1-1.2-13-7.9-14.2-16.2-.4-2.5-1.1-4.7-1.7-4.8-2.7-.6-12.4 22.4-15 35.5l-1.8 8.8h-17.5l-1.2-6.8c-7.9-46.1-45-82-92.4-89.3-11.5-1.8-33.3-.6-44.9 2.4-39.1 10.3-69.8 41.2-79.6 80.2-1.1 4.4-2.3 9.2-2.6 10.7l-.5 2.8h-9c-5.1 0-9-.4-9-1 0-1.8 43.9-179.6 45.5-184 5.3-15.1 18.3-25.9 35.3-29.6 3.7-.7 9.2-1.4 12.2-1.4 6.7 0 11.7-2.3 14.7-6.9 2.9-4.3 2.9-8.9 0-13.2-4.5-6.8-12.4-8.3-28.4-5.4z"/><path d="M496 158c-3.4 12.9-15 24.8-28.8 29.6-4.7 1.6-5.9 2.3-4 2.3 9.7.3 24.1 11 29.8 22.3 1.6 3.4 3 6.9 3 7.9s.5 2.1 1 2.4c.6.3 1-.4 1-1.8 0-1.3 1.6-5.6 3.5-9.5 5.4-10.7 14-17.6 25.8-20.6l5.2-1.3-3.5-.8c-13.4-2.9-26.9-16.3-30.6-30.5l-1.2-4.5-1.2 4.5zM428 198.2l-8.5 3.2 3.9.8c8.4 1.8 13.9 7.4 15.2 15.6.4 2.3.9 4.2 1.3 4.2.3 0 3.1-.7 6.1-1.5 3-.9 10.6-1.8 16.8-2.2 6.1-.3 11.2-.9 11.2-1.4 0-.4-1.9-2.3-4.1-4.3-4-3.4-6.2-4.1-17.9-6-4.9-.8-9.7-4-12.1-8.1-1.2-1.9-2.4-3.5-2.7-3.4-.4 0-4.5 1.4-9.2 3.1zM393.5 204.2c-1 4.5-10.1 13.3-15.4 14.9l-4.1 1.2 5.2 2.9c2.8 1.5 6.1 3.6 7.1 4.6 3 2.6 7.7 10.3 7.7 12.6 0 1.2 1.3-.5 3-4.1 3.4-6.8 7.2-10.6 14-13.6 4.3-1.9 4.4-2.1 2-2.7-7.2-2-15.3-9.4-16.5-15.1-.9-4.1-2.2-4.4-3-.7zM143 332.5c0 1.1-1.3 4.3-3 7.1-3.1 5.4-10.2 11.1-15.3 12.1-2.6.5-2.4.7 3 2.9 7 2.8 12.7 8.7 14.7 15.3.8 2.5 1.5 3.8 1.5 2.8.2-3.2 4.9-11.4 8.3-14.2 3.1-2.6 6.7-4.5 11.3-6 1.6-.5.9-1-3.3-2.4-6.7-2.3-12.6-7.9-15.2-14.6-1-2.7-1.9-4.1-2-3zM252 442.7c-4 1.4-4 1-4 75 0 70 0 71.3 2 73.3 4.3 4.3 13 1.8 14.5-4.2.3-1.3.4-33.3.3-71.1l-.3-68.9-2.8-2.4c-2.7-2.3-6.3-2.9-9.7-1.7zM313.3 443.5c-1.7.7-3.6 2.2-4.2 3.4-.8 1.3-1.1 23.7-1.1 71.5v69.5l2.7 2.6c3.3 3 7.2 3.2 10.4.6l2.4-1.9.5-59.6.5-59.6 46.7 58.8c25.7 32.3 47.6 59.6 48.7 60.6 2.5 2.3 9.6 3.3 11.6 1.6 1.3-1.1 1.5-10.2 1.5-72.6 0-70.1 0-71.4-2-73.4-3-3-11-2.5-12.7.8-.4 1-1 27.4-1.3 58.8l-.5 57.1-46.3-58.6c-50.8-64.5-49.3-62.9-56.9-59.6zM478.2 444l-2.2 2.1v71.3c0 67.8.1 71.4 1.8 72.9 2.7 2.4 9.7 2.2 12.2-.3 1.9-1.9 2-3.3 2-20.3v-18.2l16-16c9.9-9.9 16.3-15.6 16.9-15 .4.6 12.4 15.6 26.6 33.5 14.1 17.9 26.9 33.7 28.3 35.2 3.6 3.9 10.1 4 13.1.2 1.2-1.5 2.1-3.7 2.1-4.9 0-1.5-10.3-15.1-29.7-39.1l-29.7-36.8 27.7-27c26.1-25.5 27.7-27.3 27.7-30.7 0-4.9-1.8-6.9-7-7.6l-4.4-.6-43.8 44.4-43.7 44.4-.1-42.7v-42.7l-2.6-2c-3.4-2.7-8.4-2.7-11.2-.1zM109 444.7l-3.5 1.8-.3 70.9c-.2 80.5-.9 74.6 7.9 74.6 7.8 0 7.9-.2 7.9-29.2V538h23.8c25.9 0 32.3-.9 44.2-6.3 11.6-5.2 20.6-15.2 24.1-26.9 1.8-5.8 2.1-8.7 1.7-17.4-.4-9.4-.8-11-4.1-17.7-4.6-9.3-11.3-15.7-21-20.2-11.4-5.2-14.7-5.6-47.2-6.1-27.6-.5-30.3-.4-33.5 1.3zm67.2 17.2c8.7 2.8 14.5 7.3 18.3 14.1 2.8 5.1 3 6.3 3 15.5 0 11.4-1.5 15.3-8.2 21.6-8.9 8.5-17 10.5-45.5 11.4l-21.8.7v-66.5l23.8.6c20.3.4 24.7.8 30.4 2.6z"/></svg>