<svg xmlns="http://www.w3.org/2000/svg"><symbol id="fill" viewBox="0 0 48 43"><path d="M33.1 17.9L15.2 0l-2.8 2.8 4.8 4.8L6.9 17.9a3 3 0 000 4.2l11 11a3 3 0 004.2 0l11-11a3 3 0 000-4.2zM10.4 20l9.6-9.6 9.6 9.6H10.4zM38 23s-4 4.3-4 7a4 4 0 108 0c0-2.7-4-7-4-7zm10 17H0v3h48v-3z" fill="currentColor"/></symbol><symbol id="crop" viewBox="0 0 44 44"><path d="M32 28h4V12a4 4 0 00-4-4H16v4h16v16zm-20 4V0H8v8H0v4h8v20a4 4 0 004 4h20v8h4v-8h8v-4H12z" fill="currentColor"/></symbol><symbol id="contrast" viewBox="0 0 32 32"><path d="M16 4a12 12 0 110 24 12 12 0 010-24zm0-4a16 16 0 100 32 16 16 0 000-32zm0 24.29a8.52 8.52 0 000-17" fill="currentColor"/></symbol></svg>