<svg fill="none" height="276" width="238" xmlns="http://www.w3.org/2000/svg"><path d="M211.31 81.63l4.28-4.29c6.16-6.17 7.29-15.15 2.5-19.94s-13.76-3.68-19.91 2.5l-4.3 4.3a118.27 118.27 0 00-59.7-25.57v-7.67h6.12c8.72 0 15.85-6.97 15.85-15.48 0-8.5-7.13-15.48-15.85-15.48H97.72c-8.71 0-15.84 6.97-15.84 15.48 0 8.52 7.13 15.48 15.84 15.48h6.12v7.67a118.94 118.94 0 00-69.05 34 119.31 119.31 0 00-18.32 144.68 118.85 118.85 0 00198.41 10.11 119.28 119.28 0 00-3.57-145.8zm-92.3 163.32a87.9 87.9 0 01-48.88-14.85c-14.47-9.69-25.75-23.45-32.4-39.55s-8.41-33.82-5.01-50.91 11.77-32.8 24.08-45.12a87.95 87.95 0 0195.89-19.1 88.01 88.01 0 0139.49 32.46 88.2 88.2 0 01-10.95 111.26 87.92 87.92 0 01-62.22 25.8z" fill="#dedede"/><circle cx="119" cy="157" r="93" stroke="#d22856" stroke-width="16"/><path d="M115.9 191H68v-10.08l17.2-17.39c5.1-5.22 8.43-8.83 9.99-10.83 1.56-2.03 2.69-3.9 3.37-5.62s1.03-3.5 1.03-5.35c0-2.75-.76-4.8-2.3-6.14-1.5-1.34-3.5-2.01-6.04-2.01-2.66 0-5.23.6-7.73 1.83a39.92 39.92 0 00-7.83 5.2l-7.88-9.33c3.38-2.87 6.17-4.9 8.4-6.1a30.07 30.07 0 017.26-2.71c2.62-.66 5.56-.99 8.81-.99 4.28 0 8.06.79 11.34 2.35a18.1 18.1 0 017.65 6.56 17.43 17.43 0 012.71 9.66c0 3.15-.56 6.12-1.68 8.9a33.4 33.4 0 01-5.16 8.49c-2.31 2.9-6.4 7.04-12.28 12.42l-8.81 8.3v.65h29.86zm56.4-14.2h-8.25V191h-14.16v-14.2h-29.25v-10.08l30.05-44.25h13.36v43.08h8.25zm-22.4-11.25v-11.63c0-1.94.07-4.75.22-8.44.16-3.68.29-5.82.38-6.42h-.38a52.2 52.2 0 01-4.17 7.5l-12.56 18.99z" fill="#d22856"/></svg>